<?xml version="1.0" encoding="utf-8"?>
<svg width="109px" height="109.32474px" viewBox="0 0 109 109.32474" version="1.1" xmlns:xlink="http://www.w3.org/1999/xlink" xmlns="http://www.w3.org/2000/svg">
  <g id="night-clear">
    <path d="M83.1331 78.1131C65.8723 76.671 50.1977 67.4796 40.5152 53.1227C30.8327 38.7657 28.1877 20.7932 33.3237 4.25697C33.6303 3.26351 33.2854 2.1843 32.4594 1.55255C31.6334 0.920807 30.5012 0.870265 29.6222 1.4259C8.79509 13.418 -2.2981 37.1571 1.86749 60.82C6.03308 84.4829 24.5668 103.01 48.2379 107.174C71.9091 111.338 95.6564 100.249 107.653 79.4293C108.173 78.5523 108.104 77.4467 107.479 76.641C106.854 75.8354 105.8 75.4935 104.821 75.7787C97.8078 77.9382 90.4451 78.7307 83.1331 78.1131Z" id="Path" fill="#EFCC00" stroke="none" />
  </g>
</svg>