<?xml version="1.0" encoding="utf-8"?>
<svg width="142px" height="154px" viewBox="0 0 142 154" version="1.1" xmlns:xlink="http://www.w3.org/1999/xlink" xmlns="http://www.w3.org/2000/svg">
  <defs>
    <linearGradient x1="0.2446447" y1="1.0425714" x2="0.637305" y2="0.26228574" id="gradient_1">
      <stop offset="0%" stop-color="#F2F2F2" />
      <stop offset="100%" stop-color="#CFCFCF" />
    </linearGradient>
    <linearGradient x1="0.70410436" y1="0.32218152" x2="0.124788925" y2="0.82672256" id="gradient_2">
      <stop offset="2%" stop-color="#FFFFFF" />
      <stop offset="100%" stop-color="#FFFFFF" stop-opacity="0" />
    </linearGradient>
  </defs>
  <g id="night-thunderstorm">
    <path d="M109.999 46.8518C99.5212 46.0037 89.9954 40.4396 84.1041 31.7269C78.2129 23.0141 76.5938 12.0953 79.7028 2.04574C79.8627 1.4685 79.6638 0.851414 79.1969 0.476553C78.7301 0.101692 78.085 0.0410811 77.5566 0.322426C64.8312 7.54275 58.0098 21.9853 60.5123 36.4095C63.0148 50.8337 74.3016 62.1296 88.7142 64.6341C103.127 67.1386 117.558 60.3117 124.772 47.5761C125.105 47.0436 125.07 46.36 124.686 45.8637C124.302 45.3674 123.649 45.1636 123.05 45.3533C118.835 46.6797 114.405 47.1883 109.999 46.8518L109.999 46.8518Z" id="Path" fill="#EFCC00" stroke="none" />
    <path d="M43.7847 34.1468C59.966 34.1418 74.8214 43.0588 82.3801 57.3137C94.868 50.0394 110.594 51.3519 121.693 60.5946C132.793 69.8374 136.88 85.024 131.911 98.5597C126.942 112.095 113.985 121.071 99.5198 120.998L43.66 121.147C19.5472 121.147 2.21588e-15 101.671 0 77.6468C-2.21588e-15 53.6225 19.5472 34.1468 43.66 34.1468L43.7847 34.1468Z" id="Path" fill="url(#gradient_1)" stroke="none" />
    <path d="M132.773 96.3771C137.864 78.2048 127.22 59.3573 109 54.2801C90.7794 49.2029 71.882 59.8186 66.7914 77.9909C61.7007 96.1632 72.3445 115.011 90.5649 120.088C108.785 125.165 127.683 114.549 132.773 96.3771Z" id="Oval" fill="url(#gradient_2)" stroke="none" />
    <path d="M67.3902 100.147L62 130.628L72.7804 130.628L67.3902 153.147L93 121.347L80.8784 121.347L91.6588 100.147L67.3902 100.147L67.3902 100.147Z" id="Path" fill="#EFCC00" stroke="none" />
    <path d="M57 141.847C57 146.983 52.7467 151.147 47.5 151.147C42.2533 151.147 38 146.983 38 141.847C38 133.697 45.6613 126.147 47.5 126.147C49.3387 126.147 57 133.647 57 141.847Z" id="Path" fill="#0BAEFF" stroke="none" />
  </g>
</svg>