<?xml version="1.0" encoding="utf-8"?>
<svg width="140px" height="132.2019px" viewBox="0 0 140 132.2019" version="1.1" xmlns:xlink="http://www.w3.org/1999/xlink" xmlns="http://www.w3.org/2000/svg">
  <g id="day-fog" transform="translate(1.5 1.5)">
    <path d="M69.5 109.217C92.9721 109.217 112 90.4128 112 67.2169C112 44.0209 92.9721 25.2169 69.5 25.2169C46.0279 25.2169 27 44.0209 27 67.2169C27 90.4128 46.0279 109.217 69.5 109.217Z" id="Oval" fill="#EFCC00" stroke="none" />
    <path d="M70 0.216887L70 15.2169" id="Path" fill="none" fill-rule="evenodd" stroke="#EFCC00" stroke-width="3" stroke-linecap="round" />
    <path d="M137 67.2169L122 67.2169" id="Path" fill="none" fill-rule="evenodd" stroke="#EFCC00" stroke-width="3" stroke-linecap="round" />
    <path d="M17 67.2169L2 67.2169" id="Path" fill="none" fill-rule="evenodd" stroke="#EFCC00" stroke-width="3" stroke-linecap="round" />
    <path d="M118 19.2169L107 30.2169" id="Path" fill="none" fill-rule="evenodd" stroke="#EFCC00" stroke-width="3" stroke-linecap="round" />
    <path d="M33 30.2169L22 19.2169" id="Path" fill="none" fill-rule="evenodd" stroke="#EFCC00" stroke-width="3" stroke-linecap="round" />
    <path d="M89.8984 102.443C73.5542 101.382 58.7689 92.3277 50.3379 78.2169L29 78.2169C32.5427 91.1133 41.9556 101.561 54.3749 106.38C66.7941 111.2 80.7513 109.823 92 102.666C91.283 102.592 90.6154 102.493 89.8984 102.443Z" id="Path" fill="#E0E0E0" stroke="none" />
    <path d="M54 78.2169L25 78.2169" id="Path" fill="none" fill-rule="evenodd" stroke="#B9C1C6" stroke-width="3" stroke-linecap="round" />
    <path d="M9 90.2169L38 90.2169" id="Path" fill="none" fill-rule="evenodd" stroke="#B9C1C6" stroke-width="3" stroke-linecap="round" />
    <path d="M2 103.217L124 103.217" id="Path" fill="none" fill-rule="evenodd" stroke="#B9C1C6" stroke-width="3" stroke-linecap="round" />
    <path d="M76 115.217L129 115.217" id="Path" fill="none" fill-rule="evenodd" stroke="#A5A9AA" stroke-width="3" stroke-linecap="round" />
    <path d="M2 115.217L58 115.217" id="Path" fill="none" fill-rule="evenodd" stroke="#B9C1C6" stroke-width="3" stroke-linecap="round" />
    <path d="M56 128.217L104 128.217" id="Path" fill="none" fill-rule="evenodd" stroke="#A5A9AA" stroke-width="3" stroke-linecap="round" />
    <path d="M6 128.217L40 128.217" id="Path" fill="none" fill-rule="evenodd" stroke="#A5A9AA" stroke-width="3" stroke-linecap="round" />
    <path d="M51 90.2169L67 90.2169" id="Path" fill="none" fill-rule="evenodd" stroke="#B9C1C6" stroke-width="3" stroke-linecap="round" />
  </g>
</svg>