<?xml version="1.0" encoding="utf-8"?>
<svg width="98px" height="131px" viewBox="0 0 98 131" version="1.1" xmlns:xlink="http://www.w3.org/1999/xlink" xmlns="http://www.w3.org/2000/svg">
  <g id="2682807---drop-high-humidity-percentage-precipitation-rain-weather" transform="translate(3 3)">
    <path d="M92 78.0764C92 103.558 71.4051 124.215 46 124.215C20.5949 124.215 4.41689e-15 103.558 0 78.0764C4.41689e-15 37.6991 37.2973 0.21477 46 0.21477C54.7027 0.21477 92 37.6991 92 78.0764Z" id="Path" fill="#0BAEFF" stroke="none" />
    <path d="M40.7806 67.072C40.7806 75.3771 35.5352 79.7047 29.7904 79.7047C24.0455 79.7047 19 75.1769 19 67.7224C19 60.2679 23.3211 55.2148 30.0901 55.2148C36.8591 55.2148 40.7806 60.2929 40.7806 67.072ZM25.7939 67.4973C25.7939 71.6498 27.1927 74.6516 29.8903 74.6516C32.5879 74.6516 33.7868 71.975 33.7868 67.4973C33.7868 63.4698 32.6878 60.3429 29.8153 60.3429C26.9429 60.3429 25.8938 63.5448 25.8938 67.4973L25.7939 67.4973ZM75 83.5821C75 91.8871 69.7547 96.2148 64.0098 96.2148C58.2649 96.2148 53.2694 91.687 53.2194 84.2325C53.1695 76.7779 57.5406 71.7248 64.3095 71.7248C71.0785 71.7248 75 76.903 75 83.5821ZM60.1882 84.0073C60.1882 88.1599 61.537 91.1617 64.2096 91.1617C66.8822 91.1617 68.1062 88.4851 68.1062 84.0073C68.1062 79.9799 67.0571 76.853 64.2096 76.853C61.3622 76.853 60.2881 80.0299 60.2881 84.0073L60.1882 84.0073Z" id="Shape" fill="#E0E0E0" stroke="none" />
    <path d="M59 56.2148L36 93.2148" id="Path" fill="none" fill-rule="evenodd" stroke="#E0E0E0" stroke-width="6" stroke-linecap="round" stroke-linejoin="round" />
  </g>
</svg>