<?xml version="1.0" encoding="utf-8"?>
<svg width="116px" height="121px" viewBox="0 0 116 121" version="1.1" xmlns:xlink="http://www.w3.org/1999/xlink" xmlns="http://www.w3.org/2000/svg">
  <g id="cog">
    <path d="M114.518 75.0395L104.111 69.0383C105.162 63.3786 105.162 57.5726 104.111 51.9129L114.518 45.9117C115.715 45.2287 116.253 43.8138 115.862 42.4964C113.15 33.8118 108.533 25.9566 102.499 19.4187C101.57 18.4185 100.056 18.1746 98.883 18.8576L88.4757 24.8588C84.1027 21.102 79.07 18.1989 73.6221 16.2961L73.6221 4.31816C73.6221 2.95203 72.6693 1.75667 71.3257 1.46393C62.3597 -0.536463 53.174 -0.438883 44.6478 1.46393C43.3041 1.75667 42.3514 2.95203 42.3514 4.31816L42.3514 16.3205C36.9278 18.2477 31.8952 21.1508 27.4978 24.8832L17.1149 18.882C15.9178 18.1989 14.4276 18.4185 13.4992 19.4431C7.46494 25.9566 2.84762 33.8118 0.135861 42.5208C-0.279453 43.8382 0.282443 45.2531 1.47953 45.9361L11.8868 51.9373C10.8363 57.597 10.8363 63.403 11.8868 69.0627L1.47953 75.0639C0.282443 75.7469 -0.255023 77.1618 0.135861 78.4792C2.84762 87.1638 7.46494 95.019 13.4992 101.557C14.4276 102.557 15.9422 102.801 17.1149 102.118L27.5222 96.1168C31.8952 99.8736 36.9278 102.777 42.3758 104.679L42.3758 116.682C42.3758 118.048 43.3286 119.243 44.6722 119.536C53.6381 121.536 62.8239 121.439 71.3501 119.536C72.6937 119.243 73.6465 118.048 73.6465 116.682L73.6465 104.679C79.07 102.752 84.1027 99.8492 88.5001 96.1168L98.9074 102.118C100.105 102.801 101.595 102.581 102.523 101.557C108.557 95.0434 113.175 87.1882 115.886 78.4792C116.253 77.1374 115.715 75.7225 114.518 75.0395ZM57.9867 79.9917C47.213 79.9917 38.4425 71.2338 38.4425 60.4756C38.4425 49.7174 47.213 40.9595 57.9867 40.9595C68.7605 40.9595 77.5309 49.7174 77.5309 60.4756C77.5309 71.2338 68.7605 79.9917 57.9867 79.9917Z" id="Shape" fill="#BDBDBD" stroke="none" />
  </g>
</svg>