<?xml version="1.0" encoding="utf-8"?>
<svg width="144px" height="152.07922px" viewBox="0 0 144 152.07922" version="1.1" xmlns:xlink="http://www.w3.org/1999/xlink" xmlns="http://www.w3.org/2000/svg">
  <defs>
    <linearGradient x1="0.2446447" y1="1.0425714" x2="0.637305" y2="0.26228574" id="gradient_1">
      <stop offset="0%" stop-color="#F2F2F2" />
      <stop offset="100%" stop-color="#CFCFCF" />
    </linearGradient>
    <linearGradient x1="0.70410436" y1="0.32218152" x2="0.12488677" y2="0.8263723" id="gradient_2">
      <stop offset="2%" stop-color="#FFFFFF" />
      <stop offset="100%" stop-color="#FFFFFF" stop-opacity="0" />
    </linearGradient>
  </defs>
  <g id="night-windy" transform="translate(1.5 1.5)">
    <path d="M108.23 46.6965C97.9132 45.8484 88.5339 40.2844 82.7333 31.5716C76.9327 22.8588 75.3385 11.94 78.3997 1.89044C78.5571 1.3132 78.3613 0.696117 77.9016 0.321256C77.4419 -0.0536047 76.8068 -0.114216 76.2865 0.167129C63.7569 7.38746 57.0405 21.83 59.5044 36.2542C61.9684 50.6784 73.0816 61.9743 87.2725 64.4788C101.463 66.9833 115.672 60.1564 122.776 47.4208C123.103 46.8883 123.069 46.2047 122.691 45.7084C122.312 45.2121 121.669 45.0083 121.08 45.198C116.93 46.5244 112.568 47.033 108.23 46.6965L108.23 46.6965Z" id="Path" fill="#EFCC00" stroke="none" />
    <path d="M43.4579 34.9915C59.5185 34.9865 74.2631 43.9035 81.7653 58.1584C94.1601 50.8841 109.769 52.1966 120.785 61.4393C131.802 70.6821 135.858 85.8687 130.927 99.4044C125.995 112.94 113.135 121.916 98.7771 121.842L43.3341 121.992C19.4014 121.992 2.19934e-15 102.516 0 78.4915C-2.19934e-15 54.4672 19.4014 34.9915 43.3341 34.9915L43.4579 34.9915Z" id="Path" fill="url(#gradient_1)" stroke="none" />
    <path d="M131.838 96.3771C136.893 78.2048 126.324 59.3573 108.232 54.2801C90.1401 49.2029 71.3758 59.8186 66.321 77.9909C61.2662 96.1632 71.835 115.011 89.9271 120.088C108.019 125.165 126.783 114.549 131.838 96.3771Z" id="Oval" fill="url(#gradient_2)" stroke="none" />
    <path d="M92.8483 110.992C96.2578 111.032 99.0002 113.766 99 117.125L99 117.125C99 120.513 96.2123 123.259 92.7736 123.259L40.4717 123.259C36.3452 123.259 33 126.555 33 130.62L33 130.62C33 134.685 36.3452 137.981 40.4717 137.981L89.6604 137.981C92.4114 137.981 94.6415 140.178 94.6415 142.888L94.6415 143.084C94.6415 145.795 92.4114 147.992 89.6604 147.992L85.3019 147.992" id="Path" fill="none" fill-rule="evenodd" stroke="#A5A9AA" stroke-width="3" stroke-linecap="round" />
    <path d="M113 142.992C115.761 142.992 118 140.753 118 137.992L118 137.992C118 135.23 115.761 132.992 113 132.992L103 132.992" id="Path" fill="none" fill-rule="evenodd" stroke="#B9C1C6" stroke-width="3" stroke-linecap="round" />
  </g>
</svg>