<?xml version="1.0" encoding="utf-8"?>
<svg width="141px" height="131.68661px" viewBox="0 0 141 131.68661" version="1.1" xmlns:xlink="http://www.w3.org/1999/xlink" xmlns="http://www.w3.org/2000/svg">
  <defs>
    <linearGradient x1="0.2446447" y1="1.0425714" x2="0.637305" y2="0.26228574" id="gradient_1">
      <stop offset="0%" stop-color="#F2F2F2" />
      <stop offset="100%" stop-color="#CFCFCF" />
    </linearGradient>
    <linearGradient x1="0.7044546" y1="0.32227927" x2="0.12488677" y2="0.8263723" id="gradient_2">
      <stop offset="2%" stop-color="#FFFFFF" />
      <stop offset="100%" stop-color="#FFFFFF" stop-opacity="0" />
    </linearGradient>
  </defs>
  <g id="night-cloudy">
    <path d="M108.23 46.3654C97.9132 45.5173 88.5339 39.9533 82.7333 31.2405C76.9327 22.5277 75.3385 11.6089 78.3997 1.55935C78.5571 0.982115 78.3613 0.365029 77.9016 -0.00983211C77.4419 -0.384693 76.8068 -0.445304 76.2865 -0.163959C63.7569 7.05637 57.0405 21.499 59.5044 35.9231C61.9684 50.3473 73.0816 61.6432 87.2725 64.1477C101.463 66.6522 115.672 59.8254 122.776 47.0897C123.103 46.5572 123.069 45.8736 122.691 45.3773C122.312 44.881 121.669 44.6772 121.08 44.8669C116.93 46.1933 112.568 46.7019 108.23 46.3654L108.23 46.3654Z" id="Path" fill="#EFCC00" stroke="none" />
    <path d="M43.4579 34.6605C59.5185 34.6554 74.2631 43.5724 81.7653 57.8273C94.1601 50.553 109.769 51.8655 120.785 61.1082C131.802 70.351 135.858 85.5376 130.927 99.0733C125.995 112.609 113.135 121.585 98.7771 121.511L43.3341 121.66C19.4014 121.66 2.19934e-15 102.185 0 78.1605C-2.19934e-15 54.1361 19.4014 34.6605 43.3341 34.6605L43.4579 34.6605Z" id="Path" fill="url(#gradient_1)" stroke="none" />
    <path d="M131.835 96.3883C136.89 78.216 126.321 59.3686 108.229 54.2914C90.1368 49.2142 71.3726 59.8298 66.3178 78.0021C61.263 96.1744 71.8318 115.022 89.9238 120.099C108.016 125.176 126.78 114.561 131.835 96.3883Z" id="Oval" fill="url(#gradient_2)" stroke="none" />
  </g>
</svg>