<?xml version="1.0" encoding="utf-8"?>
<svg width="145px" height="124.747986px" viewBox="0 0 145 124.747986" version="1.1" xmlns:xlink="http://www.w3.org/1999/xlink" xmlns="http://www.w3.org/2000/svg">
  <defs>
    <linearGradient x1="0.2446447" y1="1.0425714" x2="0.637305" y2="0.26228574" id="gradient_1">
      <stop offset="0%" stop-color="#F2F2F2" />
      <stop offset="100%" stop-color="#CFCFCF" />
    </linearGradient>
    <linearGradient x1="0.7044546" y1="0.32227927" x2="0.124788925" y2="0.82672256" id="gradient_2">
      <stop offset="2%" stop-color="#FFFFFF" />
      <stop offset="100%" stop-color="#FFFFFF" stop-opacity="0" />
    </linearGradient>
  </defs>
  <g id="rainy" transform="translate(1.5 1.5)">
    <path d="M66 103.474L66 120.474" id="Path" fill="none" fill-rule="evenodd" stroke="#0BAEFF" stroke-width="3" stroke-linecap="round" />
    <path d="M51 98.4736L51 115.474" id="Path" fill="none" fill-rule="evenodd" stroke="#0BAEFF" stroke-width="3" stroke-linecap="round" />
    <path d="M81 98.4736L81 115.474" id="Path" fill="none" fill-rule="evenodd" stroke="#0BAEFF" stroke-width="3" stroke-linecap="round" />
    <path d="M43.7847 2.4736C59.966 2.46854 74.8214 11.3855 82.3801 25.6405C94.868 18.3662 110.594 19.6786 121.693 28.9214C132.793 38.1642 136.88 53.3508 131.911 66.8864C126.942 80.4221 113.985 89.3977 99.5198 89.3245L43.66 89.4736C19.5472 89.4736 2.21588e-15 69.998 0 45.9736C-2.21588e-15 21.9492 19.5472 2.4736 43.66 2.4736L43.7847 2.4736Z" id="Path" fill="url(#gradient_1)" stroke="none" />
    <path d="M132.776 64.0902C137.867 45.9179 127.223 27.0704 109.003 21.9932C90.7826 16.916 71.8853 27.5317 66.7946 45.704C61.704 63.8763 72.3477 82.7237 90.5681 87.801C108.788 92.8782 127.686 82.2625 132.776 64.0902Z" id="Oval" fill="url(#gradient_2)" stroke="none" />
  </g>
</svg>