<?xml version="1.0" encoding="utf-8"?>
<svg width="121.12158px" height="121.121704px" viewBox="0 0 121.12158 121.121704" version="1.1" xmlns:xlink="http://www.w3.org/1999/xlink" xmlns="http://www.w3.org/2000/svg">
  <g id="refresh" transform="matrix(0.29237175 -0.9563047 -0.9563047 -0.29237175 92.761536 121.121704)">
    <path d="M48.589 7.88531e-05C61.5488 0.023351 73.3156 5.13032 82.0029 13.4324L88.9875 6.44784C91.9445 3.4911 97 5.5852 97 9.76676L97 35.9839C97 38.5761 94.8987 40.6775 92.3064 40.6775L66.0893 40.6775C61.9077 40.6775 59.8136 35.6219 62.7703 32.665L70.9352 24.5002C64.8993 18.8486 57.089 15.718 48.7914 15.6464C30.7216 15.4903 15.4901 30.1137 15.6463 48.7832C15.7946 66.4937 30.1529 81.3549 48.5 81.3549C56.543 81.3549 64.1446 78.4844 70.1351 73.228C71.0627 72.4142 72.4635 72.4637 73.3361 73.3361L81.0926 81.0926C82.0454 82.0454 81.9982 83.5988 80.9983 84.5019C72.3984 92.2699 61.0017 97 48.5 97C21.7143 97 0.000195565 75.2859 0 48.5004C-0.000195565 21.7455 21.834 -0.0478344 48.589 7.88531e-05Z" id="Path" fill="#BDBDBD" stroke="#979797" stroke-width="0" />
  </g>
</svg>