<?xml version="1.0" encoding="utf-8"?>
<svg width="142px" height="121.747986px" viewBox="0 0 142 121.747986" version="1.1" xmlns:xlink="http://www.w3.org/1999/xlink" xmlns="http://www.w3.org/2000/svg">
  <defs>
    <linearGradient x1="0.2446447" y1="1.0425714" x2="0.637305" y2="0.26228574" id="gradient_1">
      <stop offset="0%" stop-color="#F2F2F2" />
      <stop offset="100%" stop-color="#CFCFCF" />
    </linearGradient>
    <linearGradient x1="0.70410436" y1="0.32218152" x2="0.124788925" y2="0.82672256" id="gradient_2">
      <stop offset="2%" stop-color="#FFFFFF" />
      <stop offset="100%" stop-color="#FFFFFF" stop-opacity="0" />
    </linearGradient>
  </defs>
  <g id="thunderstorm">
    <path d="M43.7847 2.25076C59.966 2.2457 74.8214 11.1627 82.3801 25.4176C94.868 18.1433 110.594 19.4558 121.693 28.6985C132.793 37.9413 136.88 53.1279 131.911 66.6636C126.942 80.1993 113.985 89.1748 99.5198 89.1016L43.66 89.2508C19.5472 89.2508 2.21588e-15 69.7751 0 45.7508C-2.21588e-15 21.7264 19.5472 2.25076 43.66 2.25076L43.7847 2.25076Z" id="Path" fill="url(#gradient_1)" stroke="none" />
    <path d="M132.776 64.0902C137.867 45.9179 127.223 27.0704 109.003 21.9932C90.7826 16.916 71.8853 27.5317 66.7946 45.704C61.704 63.8763 72.3477 82.7237 90.5681 87.801C108.788 92.8782 127.686 82.2625 132.776 64.0902Z" id="Oval" fill="url(#gradient_2)" stroke="none" />
    <path d="M67.3902 68.2508L62 98.732L72.7804 98.732L67.3902 121.251L93 89.4508L80.8784 89.4508L91.6588 68.2508L67.3902 68.2508L67.3902 68.2508Z" id="Path" fill="#EFCC00" stroke="none" />
    <path d="M57 109.951C57 115.087 52.7467 119.251 47.5 119.251C42.2533 119.251 38 115.087 38 109.951C38 101.801 45.6613 94.2508 47.5 94.2508C49.3387 94.2508 57 101.751 57 109.951Z" id="Path" fill="#0BAEFF" stroke="none" />
  </g>
</svg>